<svg id="Capa_1" data-name="Capa 1" xmlns="http://www.w3.org/2000/svg" viewBox="0 0 139.02 41.8"><defs><style>.cls-1,.cls-2{fill:#fff;}.cls-2{font-size:15px;font-family:ArialRoundedMTBold, Arial Rounded MT Bold;}.cls-3{letter-spacing:-0.05em;}.cls-4{letter-spacing:-0.01em;}</style></defs><path class="cls-1" d="M32,43.69A1.72,1.72,0,0,1,33.68,42h3.26a4,4,0,0,1,3.62,2.29H70a2.86,2.86,0,0,1,2.76,3.61L69.8,58.77a5.16,5.16,0,0,1-5,3.81H44.18l.39,2A1.71,1.71,0,0,0,46.25,66H66.89a1.72,1.72,0,0,1,0,3.43H46.25a5.15,5.15,0,0,1-5.06-4.18L37.5,45.87a.56.56,0,0,0-.56-.46H33.68A1.72,1.72,0,0,1,32,43.69Zm9.16,31.49a3.44,3.44,0,1,1,3.44,3.43,3.44,3.44,0,0,1-3.44-3.43Zm24.05-3.44a3.44,3.44,0,0,1,0,6.87h0a3.44,3.44,0,1,1,0-6.87Z" transform="translate(-31.96 -39.92)"/><text class="cls-2" transform="translate(49.82 12.7) scale(1 0.98)"><tspan class="cls-3">V</tspan><tspan x="9.57" y="0">enta</tspan><tspan x="0" y="13.27">Mu</tspan><tspan class="cls-4" x="21.56" y="13.27">eb</tspan><tspan x="39.45" y="13.27">les</tspan><tspan x="0" y="26.53">HomeHouse</tspan></text></svg>