<svg id="Capa_1" data-name="Capa 1" xmlns="http://www.w3.org/2000/svg" viewBox="0 0 138.98 41.8"><defs><style>.cls-1,.cls-3,.cls-4,.cls-5{fill:#2196f3;}.cls-2,.cls-3,.cls-4,.cls-5{isolation:isolate;}.cls-3,.cls-4,.cls-5{font-size:14.7px;font-family:ArialRoundedMTBold, Arial Rounded MT Bold;}.cls-3{letter-spacing:-0.05em;}.cls-5{letter-spacing:-0.02em;}.cls-6{letter-spacing:-0.01em;}</style></defs><path class="cls-1" d="M0,3.77A1.73,1.73,0,0,1,1.72,2.08H5A4,4,0,0,1,8.6,4.37H38A2.86,2.86,0,0,1,40.9,7.23a2.71,2.71,0,0,1-.1.75l-3,10.87a5.15,5.15,0,0,1-5,3.81H12.22l.39,2a1.71,1.71,0,0,0,1.68,1.42H34.93a1.72,1.72,0,0,1,0,3.43H14.29a5.15,5.15,0,0,1-5.06-4.18L5.54,6A.57.57,0,0,0,5,5.49H1.72A1.72,1.72,0,0,1,0,3.77ZM9.2,35.26a3.44,3.44,0,1,1,3.45,3.43h0A3.44,3.44,0,0,1,9.2,35.26Zm24.05-3.44a3.44,3.44,0,0,1,0,6.87h0a3.44,3.44,0,1,1-.37-6.87A2.29,2.29,0,0,1,33.25,31.82Z" transform="translate(-0.04 0)"/><g class="cls-2"><text class="cls-3" transform="translate(49.78 12.7) scale(1.02 1)">V</text><text class="cls-4" transform="translate(59.35 12.7) scale(1.02 1)">enta</text><text class="cls-4" transform="translate(49.78 25.71) scale(1.02 1)">Mu</text><text class="cls-5" transform="translate(71.34 25.71) scale(1.02 1)">e<tspan class="cls-6" x="8.41" y="0">b</tspan></text><text class="cls-4" transform="translate(89.23 25.71) scale(1.02 1)">les</text><text class="cls-4" transform="translate(49.78 38.7) scale(1.02 1)">HomeHouse</text></g></svg>