<svg id="Capa_1" data-name="Capa 1" xmlns="http://www.w3.org/2000/svg" viewBox="0 0 142.4 40.9"><defs><style>.cls-1{fill:none;stroke:#023761;stroke-linecap:round;stroke-linejoin:round;stroke-width:4px;}.cls-2{isolation:isolate;}.cls-3{fill:#fff;}</style></defs><path class="cls-1" d="M8.6,13.6a1.75,1.75,0,0,1,1.7-1.7h3.3a4,4,0,0,1,3.6,2.3H46.6a2.9,2.9,0,0,1,2.9,2.9,2.2,2.2,0,0,1-.1.8l-3,10.9a5.13,5.13,0,0,1-5,3.8H20.8l.4,2A1.65,1.65,0,0,0,22.9,36H43.5a1.75,1.75,0,0,1,1.6,1.8,1.81,1.81,0,0,1-1.6,1.6H22.9a5.24,5.24,0,0,1-5.1-4.2L14.1,15.8a.56.56,0,0,0-.6-.5H10.2A1.67,1.67,0,0,1,8.6,13.6Zm9.2,31.5a3.4,3.4,0,1,1,3.4,3.4h0A3.37,3.37,0,0,1,17.8,45.1Zm24-3.4a3.41,3.41,0,0,1,0,6.8h0a3.41,3.41,0,1,1-.4-6.8Z" transform="translate(-6.6 -9.9)"/><g class="cls-2"><path class="cls-1" d="M61.2,13.3l2.4,7.1L66,13.3a3.39,3.39,0,0,1,.3-.8,1.38,1.38,0,0,1,.3-.4.85.85,0,0,1,.6-.2.75.75,0,0,1,.5.1.78.78,0,0,1,.4.4.9.9,0,0,1,.1.5v.3c0,.1-.1.2-.1.4s-.1.1-.1.3l-2.6,6.9c-.1.3-.2.5-.3.8a3.33,3.33,0,0,1-.3.6,1,1,0,0,1-.5.4,1.32,1.32,0,0,1-1.4,0,2.18,2.18,0,0,1-.5-.4,3.33,3.33,0,0,1-.3-.6c-.1-.2-.2-.5-.3-.7l-2.6-6.8c0-.1-.1-.2-.1-.4s-.1-.2-.1-.4v-.4a1.08,1.08,0,0,1,.3-.7,1.14,1.14,0,0,1,.8-.3,1,1,0,0,1,.8.3C61.1,12.4,61,12.8,61.2,13.3Z" transform="translate(-6.6 -9.9)"/></g><g class="cls-2"><path class="cls-1" d="M74.6,19.2H70.7a2.66,2.66,0,0,0,.3,1.2,2.7,2.7,0,0,0,.7.8,2,2,0,0,0,1.7.2c.2-.1.4-.1.6-.3s.4-.2.5-.4.4-.3.6-.5.2-.1.4-.1a.68.68,0,0,1,.7.7,1.42,1.42,0,0,1-.2.6,3.74,3.74,0,0,1-.6.7,2.26,2.26,0,0,1-1.1.5,6.05,6.05,0,0,1-1.5.2,4.08,4.08,0,0,1-3-1.1,4,4,0,0,1-1.1-2.9,4.15,4.15,0,0,1,.3-1.6,3.53,3.53,0,0,1,.8-1.3,3.17,3.17,0,0,1,1.2-.8,3.81,3.81,0,0,1,1.6-.3,3.94,3.94,0,0,1,2,.5,2.74,2.74,0,0,1,1.3,1.3,2.93,2.93,0,0,1,.4,1.6,1.05,1.05,0,0,1-.4,1C75.6,19.4,75.1,19.2,74.6,19.2Zm-3.9-1.1h3.6a1.75,1.75,0,0,0-.6-1.5,1.73,1.73,0,0,0-1.3-.5,1.66,1.66,0,0,0-1.2.5A3.33,3.33,0,0,0,70.7,18.1Z" transform="translate(-6.6 -9.9)"/><path class="cls-1" d="M79.7,15.8V16a2.81,2.81,0,0,1,1.2-1,3.53,3.53,0,0,1,1.4-.3,3.19,3.19,0,0,1,1.4.3,1.79,1.79,0,0,1,.9,1,6.89,6.89,0,0,1,.3.8c0,.3.1.6.1,1.1v3.6a1.22,1.22,0,0,1-.3.9,1,1,0,0,1-1.4,0,1.22,1.22,0,0,1-.3-.9V18.2a3.34,3.34,0,0,0-.3-1.5,1.17,1.17,0,0,0-1.1-.5,1.69,1.69,0,0,0-1,.3,1.46,1.46,0,0,0-.6.9,6.22,6.22,0,0,0-.1,1.6v2.5a1.22,1.22,0,0,1-.3.9,1,1,0,0,1-1.4,0,1.22,1.22,0,0,1-.3-.9V15.8a1.29,1.29,0,0,1,.2-.8,1.07,1.07,0,0,1,1.2-.2c.1.1.3.2.3.4A1.27,1.27,0,0,1,79.7,15.8Z" transform="translate(-6.6 -9.9)"/><path class="cls-1" d="M87.1,14.9h.2V13c0-.2.1-.3.1-.5l.3-.3a.75.75,0,0,1,.5-.1.91.91,0,0,1,.7.3,2.19,2.19,0,0,1,.3.5c0,.2.1.4.1.8V15H90a.85.85,0,0,1,.6.2.76.76,0,0,1,.2.5.71.71,0,0,1-.3.6,2,2,0,0,1-.9.2h-.4v4.2a.52.52,0,0,0,.2.4.59.59,0,0,0,.5.2,1.09,1.09,0,0,0,.5-.1,4.33,4.33,0,0,0,.5-.1.52.52,0,0,1,.4.2.76.76,0,0,1,.2.5.75.75,0,0,1-.5.7,4.91,4.91,0,0,1-1.5.3,2.65,2.65,0,0,1-1.4-.3,1.46,1.46,0,0,1-.6-.9,5.42,5.42,0,0,1-.2-1.5V16.3H87a1.45,1.45,0,0,1-.7-.2c-.2-.1-.2-.3-.2-.5a.76.76,0,0,1,.2-.5A2.35,2.35,0,0,1,87.1,14.9Z" transform="translate(-6.6 -9.9)"/><path class="cls-1" d="M97.3,21.6a7,7,0,0,1-1.4.8,4,4,0,0,1-1.5.3,3.19,3.19,0,0,1-1.4-.3,2.36,2.36,0,0,1-.9-.8,2,2,0,0,1-.3-1.1,2.39,2.39,0,0,1,.5-1.4,2.73,2.73,0,0,1,1.4-.8c.1,0,.4-.1.9-.2s.9-.2,1.3-.3.7-.2,1.2-.3a1.61,1.61,0,0,0-.3-1.1,1.69,1.69,0,0,0-1.2-.4,2.68,2.68,0,0,0-1.1.2,1.34,1.34,0,0,0-.7.6c-.2.3-.3.5-.4.5s-.2.1-.5.1a1.42,1.42,0,0,1-.6-.2c-.2-.1-.2-.3-.2-.5a1.43,1.43,0,0,1,.4-1,2.28,2.28,0,0,1,1.2-.8,6,6,0,0,1,2-.3,5.84,5.84,0,0,1,2.1.3,1.82,1.82,0,0,1,1.1,1,4.18,4.18,0,0,1,.3,1.8V20a5,5,0,0,0,.2,1.2c.1.4.2.7.2.8a.55.55,0,0,1-.3.5.84.84,0,0,1-.7.2.86.86,0,0,1-.6-.3A6.53,6.53,0,0,1,97.3,21.6Zm-.1-2.8a8.57,8.57,0,0,1-1.3.3,6.81,6.81,0,0,0-1.2.3,3.33,3.33,0,0,0-.6.3.91.91,0,0,0-.3.7,1.33,1.33,0,0,0,.3.8,1.22,1.22,0,0,0,.9.3,2,2,0,0,0,1.1-.3,1.58,1.58,0,0,0,.7-.7,2.81,2.81,0,0,0,.3-1.5v-.2Z" transform="translate(-6.6 -9.9)"/></g><g class="cls-2"><path class="cls-1" d="M63.2,34l-1.7-6.7v7.3a1.22,1.22,0,0,1-.3.9,1,1,0,0,1-1.4,0,1.22,1.22,0,0,1-.3-.9V26.3c0-.5.1-.8.4-.9a1.5,1.5,0,0,1,1-.2h.7a2.22,2.22,0,0,1,.9.1.78.78,0,0,1,.4.4,4.65,4.65,0,0,1,.3.9l1.6,5.8,1.6-5.8a4.65,4.65,0,0,1,.3-.9.78.78,0,0,1,.4-.4,2.22,2.22,0,0,1,.9-.1h.7a3,3,0,0,1,1,.2,1.27,1.27,0,0,1,.4.9v8.3a1.22,1.22,0,0,1-.3.9,1,1,0,0,1-1.4,0,1.22,1.22,0,0,1-.3-.9V27.3l-2,6.7a6.21,6.21,0,0,1-.3,1,2.09,2.09,0,0,1-.4.6,1.14,1.14,0,0,1-.8.3.85.85,0,0,1-.6-.2.78.78,0,0,1-.4-.4,1.42,1.42,0,0,1-.2-.6A6.37,6.37,0,0,0,63.2,34Z" transform="translate(-6.6 -9.9)"/><path class="cls-1" d="M77.1,34.6v-.3a2.7,2.7,0,0,1-.8.7,1.8,1.8,0,0,1-.9.4c-.3,0-.7.1-1.1.1a2.77,2.77,0,0,1-1.3-.3,2.36,2.36,0,0,1-.9-.8,4,4,0,0,1-.4-1.8V28.7a1.22,1.22,0,0,1,.3-.9,1,1,0,0,1,1.4,0,1.22,1.22,0,0,1,.3.9v3.1a3.42,3.42,0,0,0,.1,1.1,1.61,1.61,0,0,0,.4.7,1.14,1.14,0,0,0,.8.3,1.93,1.93,0,0,0,1-.3,2.7,2.7,0,0,0,.7-.8,6.25,6.25,0,0,0,.2-1.8V28.6a1.22,1.22,0,0,1,.3-.9,1,1,0,0,1,1.4,0,1.22,1.22,0,0,1,.3.9v5.7c0,.4-.1.7-.3.8a1,1,0,0,1-1.4,0C77.2,35.3,77.1,35,77.1,34.6Z" transform="translate(-6.6 -9.9)"/></g><g class="cls-2"><path class="cls-1" d="M86.6,32.2H82.7a2.66,2.66,0,0,0,.3,1.2,2.7,2.7,0,0,0,.7.8,2,2,0,0,0,1.7.2c.2-.1.4-.1.6-.3s.4-.2.5-.4.4-.3.6-.5.2-.1.4-.1a.68.68,0,0,1,.7.7,1.42,1.42,0,0,1-.2.6,3.74,3.74,0,0,1-.6.7,2.81,2.81,0,0,1-1.1.5,6.05,6.05,0,0,1-1.5.2,4.08,4.08,0,0,1-3-1.1,4,4,0,0,1-1.1-2.9,4.15,4.15,0,0,1,.3-1.6,3.53,3.53,0,0,1,.8-1.3,3.17,3.17,0,0,1,1.2-.8,4.15,4.15,0,0,1,1.6-.3,3.94,3.94,0,0,1,2,.5,2.74,2.74,0,0,1,1.3,1.3,2.93,2.93,0,0,1,.4,1.6,1.05,1.05,0,0,1-.4,1Zm-3.9-1.1h3.6a1.75,1.75,0,0,0-.6-1.5,1.73,1.73,0,0,0-1.3-.5,1.66,1.66,0,0,0-1.2.5A2.46,2.46,0,0,0,82.7,31.1Z" transform="translate(-6.6 -9.9)"/><path class="cls-1" d="M91.4,26v3a7.29,7.29,0,0,1,1.1-.9,3.34,3.34,0,0,1,1.5-.3,3.1,3.1,0,0,1,1.7.5,3.74,3.74,0,0,1,1.2,1.3,4.64,4.64,0,0,1,.4,2.1,7.77,7.77,0,0,1-.2,1.6,5.39,5.39,0,0,1-.7,1.3,2.26,2.26,0,0,1-1.1.8,3.19,3.19,0,0,1-1.4.3,2.77,2.77,0,0,1-.9-.1,4.88,4.88,0,0,1-.7-.3,1,1,0,0,1-.5-.4,3.81,3.81,0,0,1-.5-.6v.2a1,1,0,0,1-.3.8,1,1,0,0,1-1.4,0,1.14,1.14,0,0,1-.3-.8V25.9a2,2,0,0,1,.2-.9,1,1,0,0,1,1.4,0A1.6,1.6,0,0,1,91.4,26Zm.1,5.8a3,3,0,0,0,.5,1.8,1.82,1.82,0,0,0,1.4.6,1.76,1.76,0,0,0,1.3-.6,2.43,2.43,0,0,0,.5-1.8,4.44,4.44,0,0,0-.2-1.3,3.49,3.49,0,0,0-.6-.9,1.82,1.82,0,0,0-2,0,2.18,2.18,0,0,0-.7.9A4.44,4.44,0,0,0,91.5,31.8Z" transform="translate(-6.6 -9.9)"/></g><g class="cls-2"><path class="cls-1" d="M98.9,34.5V26a1.22,1.22,0,0,1,.3-.9,1,1,0,0,1,1.4,0,1.22,1.22,0,0,1,.3.9v8.5a1.22,1.22,0,0,1-.3.9,1,1,0,0,1-1.4,0A1.22,1.22,0,0,1,98.9,34.5Z" transform="translate(-6.6 -9.9)"/><path class="cls-1" d="M108.5,32.2h-3.9a2.66,2.66,0,0,0,.3,1.2,2.7,2.7,0,0,0,.7.8,2,2,0,0,0,1.7.2c.2-.1.4-.1.6-.3s.4-.2.5-.4.4-.3.6-.5.2-.1.4-.1a.68.68,0,0,1,.7.7,1.42,1.42,0,0,1-.2.6,3.74,3.74,0,0,1-.6.7,2.81,2.81,0,0,1-1.1.5,6.05,6.05,0,0,1-1.5.2,4.08,4.08,0,0,1-3-1.1,4,4,0,0,1-1.1-2.9,4.15,4.15,0,0,1,.3-1.6,3.53,3.53,0,0,1,.8-1.3,3.17,3.17,0,0,1,1.2-.8,4.15,4.15,0,0,1,1.6-.3,3.94,3.94,0,0,1,2,.5,2.74,2.74,0,0,1,1.3,1.3,2.93,2.93,0,0,1,.4,1.6,1.05,1.05,0,0,1-.4,1Zm-3.9-1.1h3.6a1.75,1.75,0,0,0-.6-1.5,1.73,1.73,0,0,0-1.3-.5,1.66,1.66,0,0,0-1.2.5A5.27,5.27,0,0,0,104.6,31.1Z" transform="translate(-6.6 -9.9)"/><path class="cls-1" d="M118.3,33.2a2.3,2.3,0,0,1-.4,1.4,2.73,2.73,0,0,1-1.2.9,5.41,5.41,0,0,1-1.9.3,4.84,4.84,0,0,1-1.8-.3,2.42,2.42,0,0,1-1.1-.8,1.78,1.78,0,0,1-.4-1,1.42,1.42,0,0,1,.2-.6.73.73,0,0,1,.6-.2.76.76,0,0,1,.5.2,1.38,1.38,0,0,1,.3.4,5.72,5.72,0,0,0,.7.8,1.92,1.92,0,0,0,1.2.3,1.69,1.69,0,0,0,1-.3.72.72,0,0,0,.4-.6.91.91,0,0,0-.4-.8,5.89,5.89,0,0,0-1.3-.5c-.7-.2-1.2-.3-1.7-.5a2.55,2.55,0,0,1-1-.7,1.71,1.71,0,0,1,0-2.2,2.42,2.42,0,0,1,1.1-.8,4.31,4.31,0,0,1,1.7-.3,5.9,5.9,0,0,1,1.4.2,2.32,2.32,0,0,1,1,.4,1.7,1.7,0,0,1,.6.6,1,1,0,0,1,0,1.2c-.1.2-.4.2-.7.2a.76.76,0,0,1-.5-.2l-.5-.5-.5-.5a1.49,1.49,0,0,0-1-.3,2,2,0,0,0-.9.2c-.2.2-.4.3-.4.6a.55.55,0,0,0,.3.5,4.88,4.88,0,0,0,.7.3,10.38,10.38,0,0,0,1.2.3,5.27,5.27,0,0,1,1.5.5,2.18,2.18,0,0,1,.9.7A1.67,1.67,0,0,1,118.3,33.2Z" transform="translate(-6.6 -9.9)"/></g><g class="cls-2"><path class="cls-1" d="M61.8,39.1v3h4.7v-3a1.49,1.49,0,0,1,.3-1,1.22,1.22,0,0,1,1.6,0,1.33,1.33,0,0,1,.3,1v8.3a1.49,1.49,0,0,1-.3,1,1.22,1.22,0,0,1-1.6,0,1.33,1.33,0,0,1-.3-1V43.9H61.8v3.5a1.49,1.49,0,0,1-.3,1,1.22,1.22,0,0,1-1.6,0,1.33,1.33,0,0,1-.3-1V39.1a1.49,1.49,0,0,1,.3-1,1.22,1.22,0,0,1,1.6,0A1.69,1.69,0,0,1,61.8,39.1Z" transform="translate(-6.6 -9.9)"/><path class="cls-1" d="M78.3,44.7a4.15,4.15,0,0,1-.3,1.6,5.67,5.67,0,0,1-.8,1.3,2.87,2.87,0,0,1-1.3.8,4.42,4.42,0,0,1-3.2,0,5.67,5.67,0,0,1-1.3-.8,3.53,3.53,0,0,1-.8-1.3,4.42,4.42,0,0,1,0-3.2,5.67,5.67,0,0,1,.8-1.3,4.33,4.33,0,0,1,2.9-1.1,3.81,3.81,0,0,1,1.6.3,5.67,5.67,0,0,1,1.3.8,2.87,2.87,0,0,1,.8,1.3A4.53,4.53,0,0,1,78.3,44.7Zm-2,0a3.56,3.56,0,0,0-.5-1.9,1.91,1.91,0,0,0-1.4-.7,1.69,1.69,0,0,0-1,.3,2.18,2.18,0,0,0-.7.9,3,3,0,0,0-.2,1.4,4.44,4.44,0,0,0,.2,1.3,2.18,2.18,0,0,0,.7.9,1.69,1.69,0,0,0,1,.3,1.51,1.51,0,0,0,1.4-.7A3.2,3.2,0,0,0,76.3,44.7Z" transform="translate(-6.6 -9.9)"/><path class="cls-1" d="M86.5,44.9v2.6a1.22,1.22,0,0,1-.3.9,1,1,0,0,1-.8.3.91.91,0,0,1-.7-.3,1.22,1.22,0,0,1-.3-.9V44.4a3.11,3.11,0,0,0-.1-1.1,1,1,0,0,0-1-1c-.7,0-1.1.2-1.3.7a4.7,4.7,0,0,0-.3,1.9v2.6a1.22,1.22,0,0,1-.3.9.91.91,0,0,1-.7.3.78.78,0,0,1-.7-.3,1.22,1.22,0,0,1-.3-.9V41.9a1,1,0,0,1,.3-.8,1,1,0,0,1,1.7.7V42a3.13,3.13,0,0,1,1.1-.9,3,3,0,0,1,2.6,0,2,2,0,0,1,.9.9,3.13,3.13,0,0,1,1.1-.9,2.77,2.77,0,0,1,1.3-.3,3.19,3.19,0,0,1,1.4.3,2,2,0,0,1,.9.9,3.69,3.69,0,0,1,.3,1.7v3.8a1.22,1.22,0,0,1-.3.9,1,1,0,0,1-.8.3.78.78,0,0,1-.7-.3,1.22,1.22,0,0,1-.3-.9V44.2a2.79,2.79,0,0,0-.1-1,.6.6,0,0,0-.3-.6.91.91,0,0,0-.7-.3,2.35,2.35,0,0,0-.8.2l-.6.6A7.45,7.45,0,0,0,86.5,44.9Z" transform="translate(-6.6 -9.9)"/><path class="cls-1" d="M98.8,45.2H94.9a2.66,2.66,0,0,0,.3,1.2,2.7,2.7,0,0,0,.7.8,2,2,0,0,0,1.7.2c.2-.1.4-.1.6-.3s.4-.2.5-.4a2.65,2.65,0,0,0,.6-.5c.1-.1.2-.1.4-.1a.68.68,0,0,1,.7.7,1.42,1.42,0,0,1-.2.6,3.74,3.74,0,0,1-.6.7,2.81,2.81,0,0,1-1.1.5,6.8,6.8,0,0,1-1.5.2,4.08,4.08,0,0,1-3-1.1,4,4,0,0,1-1.1-2.9,4.15,4.15,0,0,1,.3-1.6,3.53,3.53,0,0,1,.8-1.3,3.17,3.17,0,0,1,1.2-.8,4.15,4.15,0,0,1,1.6-.3,3.94,3.94,0,0,1,2,.5,2.74,2.74,0,0,1,1.3,1.3,2.93,2.93,0,0,1,.4,1.6,1.05,1.05,0,0,1-.4,1Zm-4-1.1h3.6a1.75,1.75,0,0,0-.6-1.5,1.73,1.73,0,0,0-1.3-.5,1.66,1.66,0,0,0-1.2.5A5.27,5.27,0,0,0,94.8,44.1Z" transform="translate(-6.6 -9.9)"/><path class="cls-1" d="M104.4,39.1v3h4.7v-3a1.49,1.49,0,0,1,.3-1,1.22,1.22,0,0,1,1.6,0,1.33,1.33,0,0,1,.3,1v8.3a1.49,1.49,0,0,1-.3,1,1.22,1.22,0,0,1-1.6,0,1.33,1.33,0,0,1-.3-1V43.9h-4.7v3.5a1.49,1.49,0,0,1-.3,1,1.22,1.22,0,0,1-1.6,0,1.33,1.33,0,0,1-.3-1V39.1a1.49,1.49,0,0,1,.3-1,1.22,1.22,0,0,1,1.6,0A1.69,1.69,0,0,1,104.4,39.1Z" transform="translate(-6.6 -9.9)"/><path class="cls-1" d="M121,44.7a4.15,4.15,0,0,1-.3,1.6,5.67,5.67,0,0,1-.8,1.3,2.87,2.87,0,0,1-1.3.8,4.15,4.15,0,0,1-1.6.3,3.81,3.81,0,0,1-1.6-.3,9.13,9.13,0,0,1-1.3-.8,3.53,3.53,0,0,1-.8-1.3,4.42,4.42,0,0,1,0-3.2,5.67,5.67,0,0,1,.8-1.3,4.33,4.33,0,0,1,2.9-1.1,3.81,3.81,0,0,1,1.6.3,5.67,5.67,0,0,1,1.3.8,2.87,2.87,0,0,1,.8,1.3A4.53,4.53,0,0,1,121,44.7Zm-2,0a3.56,3.56,0,0,0-.5-1.9,1.91,1.91,0,0,0-1.4-.7,1.69,1.69,0,0,0-1,.3,2.18,2.18,0,0,0-.7.9,3,3,0,0,0-.2,1.4,4.44,4.44,0,0,0,.2,1.3,2.18,2.18,0,0,0,.7.9,1.69,1.69,0,0,0,1,.3,1.51,1.51,0,0,0,1.4-.7A3.2,3.2,0,0,0,119,44.7Z" transform="translate(-6.6 -9.9)"/><path class="cls-1" d="M127.7,47.6v-.3a2.7,2.7,0,0,1-.8.7,1.8,1.8,0,0,1-.9.4c-.3,0-.7.1-1.1.1a2.77,2.77,0,0,1-1.3-.3,2.36,2.36,0,0,1-.9-.8,4,4,0,0,1-.4-1.8V41.7a1.22,1.22,0,0,1,.3-.9,1,1,0,0,1,1.4,0,1.22,1.22,0,0,1,.3.9v3.1a3.42,3.42,0,0,0,.1,1.1,1.61,1.61,0,0,0,.4.7,1.14,1.14,0,0,0,.8.3,1.93,1.93,0,0,0,1-.3,2.7,2.7,0,0,0,.7-.8,6.25,6.25,0,0,0,.2-1.8V41.6a1.22,1.22,0,0,1,.3-.9,1,1,0,0,1,1.4,0,1.22,1.22,0,0,1,.3.9v5.7c0,.4-.1.7-.3.8a1,1,0,0,1-1.4,0C127.8,48.2,127.7,48,127.7,47.6Z" transform="translate(-6.6 -9.9)"/><path class="cls-1" d="M138,46.2a2.3,2.3,0,0,1-.4,1.4,2.73,2.73,0,0,1-1.2.9,5.41,5.41,0,0,1-1.9.3,4.84,4.84,0,0,1-1.8-.3,2.42,2.42,0,0,1-1.1-.8,1.78,1.78,0,0,1-.4-1,1.42,1.42,0,0,1,.2-.6.73.73,0,0,1,.6-.2c.2,0,.4,0,.5.2a1.38,1.38,0,0,1,.3.4,5.72,5.72,0,0,0,.7.8,1.92,1.92,0,0,0,1.2.3,1.69,1.69,0,0,0,1-.3.72.72,0,0,0,.4-.6.91.91,0,0,0-.4-.8,5.89,5.89,0,0,0-1.3-.5c-.7-.2-1.2-.3-1.7-.5a2.55,2.55,0,0,1-1-.7,1.71,1.71,0,0,1,0-2.2,2.42,2.42,0,0,1,1.1-.8,4.31,4.31,0,0,1,1.7-.3,5.9,5.9,0,0,1,1.4.2,2.32,2.32,0,0,1,1,.4,1.7,1.7,0,0,1,.6.6,1,1,0,0,1,0,1.2c-.1.2-.4.2-.7.2a.76.76,0,0,1-.5-.2l-.5-.5-.5-.5a1.88,1.88,0,0,0-.8-.2,2,2,0,0,0-.9.2.68.68,0,0,0-.4.6.55.55,0,0,0,.3.5,4.88,4.88,0,0,0,.7.3,10.38,10.38,0,0,0,1.2.3,5.27,5.27,0,0,1,1.5.5,2.18,2.18,0,0,1,.9.7A3,3,0,0,1,138,46.2Z" transform="translate(-6.6 -9.9)"/><path class="cls-1" d="M145.3,45.2h-3.9a2.66,2.66,0,0,0,.3,1.2,2.7,2.7,0,0,0,.7.8,2,2,0,0,0,1.7.2c.2-.1.4-.1.6-.3s.4-.2.5-.4a2.65,2.65,0,0,0,.6-.5c.1-.1.2-.1.4-.1a.68.68,0,0,1,.7.7,1.42,1.42,0,0,1-.2.6,3.74,3.74,0,0,1-.6.7,2.81,2.81,0,0,1-1.1.5,6.05,6.05,0,0,1-1.5.2,4.08,4.08,0,0,1-3-1.1,4,4,0,0,1-1.1-2.9,4.15,4.15,0,0,1,.3-1.6,3.53,3.53,0,0,1,.8-1.3,4.18,4.18,0,0,1,1.2-.8,3.81,3.81,0,0,1,1.6-.3,3.94,3.94,0,0,1,2,.5,2.74,2.74,0,0,1,1.3,1.3,2.93,2.93,0,0,1,.4,1.6,1.05,1.05,0,0,1-.4,1C146.3,45.4,145.8,45.2,145.3,45.2Zm-3.9-1.1H145a1.75,1.75,0,0,0-.6-1.5,1.9,1.9,0,0,0-1.3-.5,1.66,1.66,0,0,0-1.2.5A3,3,0,0,0,141.4,44.1Z" transform="translate(-6.6 -9.9)"/></g><path class="cls-3" d="M8.7,13.5a1.75,1.75,0,0,1,1.7-1.7h3.3a4,4,0,0,1,3.6,2.3H46.7A2.9,2.9,0,0,1,49.6,17a2.2,2.2,0,0,1-.1.8l-3,10.9a5.13,5.13,0,0,1-5,3.8H20.9l.4,2A1.65,1.65,0,0,0,23,35.9H43.6a1.75,1.75,0,0,1,1.6,1.8,1.81,1.81,0,0,1-1.6,1.6H22.9a5.24,5.24,0,0,1-5.1-4.2L14.1,15.7a.56.56,0,0,0-.6-.5H10.2A1.66,1.66,0,0,1,8.7,13.5ZM17.8,45a3.4,3.4,0,1,1,3.4,3.4h0A3.5,3.5,0,0,1,17.8,45Zm24.1-3.4a3.41,3.41,0,0,1,0,6.8h0a3.41,3.41,0,0,1-.4-6.8Z" transform="translate(-6.6 -9.9)"/><g class="cls-2"><path class="cls-3" d="M61.2,13.1l2.4,7.1L66,13.1a3.39,3.39,0,0,1,.3-.8,1.38,1.38,0,0,1,.3-.4.85.85,0,0,1,.6-.2.75.75,0,0,1,.5.1.78.78,0,0,1,.4.4.9.9,0,0,1,.1.5V13c0,.1-.1.2-.1.4s-.1.2-.1.4l-2.6,6.9c-.1.3-.2.5-.3.8a.85.85,0,0,1-.3.5,1,1,0,0,1-.5.4,1.33,1.33,0,0,1-1.4,0,2.18,2.18,0,0,1-.5-.4,3.33,3.33,0,0,1-.3-.6c-.1-.2-.2-.5-.3-.7l-2.6-6.8c0-.1-.1-.2-.1-.4s-.1-.2-.1-.4v-.4a1.08,1.08,0,0,1,.3-.7,1.14,1.14,0,0,1,.8-.3,1,1,0,0,1,.8.3C61.1,12.2,61.1,12.7,61.2,13.1Z" transform="translate(-6.6 -9.9)"/></g><path class="cls-3" d="M74.7,19.1H70.8a2.66,2.66,0,0,0,.3,1.2,2.7,2.7,0,0,0,.7.8,2,2,0,0,0,1.7.2c.2-.1.4-.1.6-.3s.4-.2.5-.4.4-.3.6-.5.2-.1.4-.1a.68.68,0,0,1,.7.7,1.42,1.42,0,0,1-.2.6,3.74,3.74,0,0,1-.6.7,2.26,2.26,0,0,1-1.1.5,6.05,6.05,0,0,1-1.5.2,4.08,4.08,0,0,1-3-1.1,4,4,0,0,1-1.1-2.9,4.15,4.15,0,0,1,.3-1.6,3.53,3.53,0,0,1,.8-1.3,3.17,3.17,0,0,1,1.2-.8,3.81,3.81,0,0,1,1.6-.3,3.94,3.94,0,0,1,2,.5A2.74,2.74,0,0,1,76,16.5a2.93,2.93,0,0,1,.4,1.6,1.05,1.05,0,0,1-.4,1C75.7,19.3,75.2,19.1,74.7,19.1Zm-4-1.1h3.6a1.75,1.75,0,0,0-.6-1.5,1.73,1.73,0,0,0-1.3-.5,1.66,1.66,0,0,0-1.2.5A3.71,3.71,0,0,0,70.7,18Z" transform="translate(-6.6 -9.9)"/><path class="cls-3" d="M79.8,15.7V16A2.81,2.81,0,0,1,81,15a3.42,3.42,0,0,1,2.8,0,1.79,1.79,0,0,1,.9,1,6.89,6.89,0,0,1,.3.8c0,.3.1.6.1,1.1v3.6a1.22,1.22,0,0,1-.3.9,1,1,0,0,1-1.4,0,1.22,1.22,0,0,1-.3-.9V18.2a3.34,3.34,0,0,0-.3-1.5,1.17,1.17,0,0,0-1.1-.5,1.69,1.69,0,0,0-1,.3,1.46,1.46,0,0,0-.6.9A6.22,6.22,0,0,0,80,19v2.5a1.22,1.22,0,0,1-.3.9,1,1,0,0,1-1.4,0,1.22,1.22,0,0,1-.3-.9V15.8a1.29,1.29,0,0,1,.2-.8,1.07,1.07,0,0,1,1.2-.2c.1.1.3.2.3.4A.75.75,0,0,1,79.8,15.7Z" transform="translate(-6.6 -9.9)"/><path class="cls-3" d="M87.2,14.8h.2V12.9c0-.2.1-.3.1-.5l.3-.3a1.27,1.27,0,0,1,.6-.1.91.91,0,0,1,.7.3,2.19,2.19,0,0,1,.3.5c0,.2.1.4.1.8v1.3h.7a.85.85,0,0,1,.6.2.76.76,0,0,1,.2.5.71.71,0,0,1-.3.6,2,2,0,0,1-.9.2h-.4v4.3a.52.52,0,0,0,.2.4.59.59,0,0,0,.5.2,1.09,1.09,0,0,0,.5-.1c.2-.1.3-.2.4-.2a.52.52,0,0,1,.4.2.76.76,0,0,1,.2.5.75.75,0,0,1-.5.7,4.91,4.91,0,0,1-1.5.3,2.65,2.65,0,0,1-1.4-.3,1.46,1.46,0,0,1-.6-.9,5.42,5.42,0,0,1-.2-1.5V16.2h-.3a1.45,1.45,0,0,1-.7-.2c-.2-.1-.2-.3-.2-.5a.76.76,0,0,1,.2-.5A1.88,1.88,0,0,1,87.2,14.8Z" transform="translate(-6.6 -9.9)"/><path class="cls-3" d="M97.4,21.5a7,7,0,0,1-1.4.8,4,4,0,0,1-1.5.3,3.19,3.19,0,0,1-1.4-.3,2.36,2.36,0,0,1-.9-.8,2,2,0,0,1-.3-1.1,2.39,2.39,0,0,1,.5-1.4,2.73,2.73,0,0,1,1.4-.8c.1,0,.4-.1.9-.2s.9-.2,1.3-.3.7-.2,1.2-.3a1.61,1.61,0,0,0-.3-1.1,1.69,1.69,0,0,0-1.2-.4,2.68,2.68,0,0,0-1.1.2,1.34,1.34,0,0,0-.7.6c-.2.3-.3.5-.4.5s-.2.1-.5.1a1.42,1.42,0,0,1-.6-.2c-.2-.1-.2-.3-.2-.5a1.43,1.43,0,0,1,.4-1,2.28,2.28,0,0,1,1.2-.8,6,6,0,0,1,2-.3,5.84,5.84,0,0,1,2.1.3,1.82,1.82,0,0,1,1.1,1,4.18,4.18,0,0,1,.3,1.8v2.3a5,5,0,0,0,.2,1.2c.1.4.2.7.2.8a.55.55,0,0,1-.3.5.84.84,0,0,1-.7.2.86.86,0,0,1-.6-.3A2.85,2.85,0,0,1,97.4,21.5Zm-.1-2.8A8.57,8.57,0,0,1,96,19a6.81,6.81,0,0,0-1.2.3,3.33,3.33,0,0,0-.6.3.91.91,0,0,0-.3.7,1.33,1.33,0,0,0,.3.8,1.22,1.22,0,0,0,.9.3,2,2,0,0,0,1.1-.3,1.58,1.58,0,0,0,.7-.7,2.81,2.81,0,0,0,.3-1.5v-.2Z" transform="translate(-6.6 -9.9)"/><path class="cls-3" d="M63.3,33.9l-1.7-6.7v7.3a1.22,1.22,0,0,1-.3.9,1,1,0,0,1-1.4,0,1.22,1.22,0,0,1-.3-.9V26.2c0-.5.1-.8.4-.9a1.5,1.5,0,0,1,1-.2h.7a2.22,2.22,0,0,1,.9.1.78.78,0,0,1,.4.4,4.65,4.65,0,0,1,.3.9l1.6,5.8,1.6-5.8a4.65,4.65,0,0,1,.3-.9.78.78,0,0,1,.4-.4,2.22,2.22,0,0,1,.9-.1h.7a3,3,0,0,1,1,.2,1.27,1.27,0,0,1,.4.9v8.3a1.22,1.22,0,0,1-.3.9,1,1,0,0,1-1.4,0,1.22,1.22,0,0,1-.3-.9V27.2l-1.7,6.7a6.21,6.21,0,0,1-.3,1,2.09,2.09,0,0,1-.4.6,1.14,1.14,0,0,1-.8.3.85.85,0,0,1-.6-.2.78.78,0,0,1-.4-.4,1.42,1.42,0,0,1-.2-.6C63.4,34.3,63.3,34.1,63.3,33.9Z" transform="translate(-6.6 -9.9)"/><path class="cls-3" d="M77.2,34.5v-.3a2.7,2.7,0,0,1-.8.7,1.8,1.8,0,0,1-.9.4,3.75,3.75,0,0,1-1.1.1,2.77,2.77,0,0,1-1.3-.3,2.36,2.36,0,0,1-.9-.8,4,4,0,0,1-.4-1.8V28.6a1.22,1.22,0,0,1,.3-.9,1,1,0,0,1,1.4,0,1.22,1.22,0,0,1,.3.9V32a3.42,3.42,0,0,0,.1,1.1,1.61,1.61,0,0,0,.4.7,1.14,1.14,0,0,0,.8.3,1.93,1.93,0,0,0,1-.3,2.7,2.7,0,0,0,.7-.8,6.25,6.25,0,0,0,.2-1.8V28.8a1.22,1.22,0,0,1,.3-.9,1,1,0,0,1,1.4,0,1.22,1.22,0,0,1,.3.9v5.7c0,.4-.1.7-.3.8a1,1,0,0,1-1.4,0C77.3,35.1,77.2,34.9,77.2,34.5Z" transform="translate(-6.6 -9.9)"/><path class="cls-3" d="M86.6,32.1H82.7a2.66,2.66,0,0,0,.3,1.2,2.7,2.7,0,0,0,.7.8,2,2,0,0,0,1.7.2c.2-.1.4-.1.6-.3s.4-.2.5-.4.4-.3.6-.5.2-.1.4-.1a.68.68,0,0,1,.7.7,1.42,1.42,0,0,1-.2.6,3.74,3.74,0,0,1-.6.7,2.81,2.81,0,0,1-1.1.5,6.05,6.05,0,0,1-1.5.2,4.08,4.08,0,0,1-3-1.1,4,4,0,0,1-1.1-2.9,4.15,4.15,0,0,1,.3-1.6,3.53,3.53,0,0,1,.8-1.3A3.17,3.17,0,0,1,83,28a3.81,3.81,0,0,1,1.6-.3,3.94,3.94,0,0,1,2,.5,2.74,2.74,0,0,1,1.3,1.3,2.93,2.93,0,0,1,.4,1.6,1.05,1.05,0,0,1-.4,1C87.6,32.3,87.2,32.1,86.6,32.1ZM82.7,31h3.6a1.75,1.75,0,0,0-.6-1.5,1.73,1.73,0,0,0-1.3-.5,1.66,1.66,0,0,0-1.2.5A5.27,5.27,0,0,0,82.7,31Z" transform="translate(-6.6 -9.9)"/><path class="cls-3" d="M91.5,25.9v3a4.7,4.7,0,0,1,1.2-.9,3.34,3.34,0,0,1,1.5-.3,3.1,3.1,0,0,1,1.7.5,3.74,3.74,0,0,1,1.2,1.3,4.64,4.64,0,0,1,.4,2.1,7.77,7.77,0,0,1-.2,1.6,5.39,5.39,0,0,1-.7,1.3,2.26,2.26,0,0,1-1.1.8,3.19,3.19,0,0,1-1.4.3,2.77,2.77,0,0,1-.9-.1,4.88,4.88,0,0,1-.7-.3,1,1,0,0,1-.5-.4,3.81,3.81,0,0,1-.5-.6v.2a1,1,0,0,1-.3.8,1,1,0,0,1-1.4,0,1.14,1.14,0,0,1-.3-.8V26a2,2,0,0,1,.2-.9,1,1,0,0,1,1.4,0A1,1,0,0,1,91.5,25.9Zm.1,5.8a3,3,0,0,0,.5,1.8,1.82,1.82,0,0,0,1.4.6,1.76,1.76,0,0,0,1.3-.6,2.43,2.43,0,0,0,.5-1.8,4.44,4.44,0,0,0-.2-1.3,3.49,3.49,0,0,0-.6-.9,1.82,1.82,0,0,0-2,0,2.18,2.18,0,0,0-.7.9A2.74,2.74,0,0,0,91.6,31.7Z" transform="translate(-6.6 -9.9)"/><path class="cls-3" d="M99,34.4V25.9a1.22,1.22,0,0,1,.3-.9,1,1,0,0,1,1.4,0,1.22,1.22,0,0,1,.3.9v8.5a1.22,1.22,0,0,1-.3.9,1,1,0,0,1-1.4,0C99,35.1,99,34.8,99,34.4Z" transform="translate(-6.6 -9.9)"/><path class="cls-3" d="M108.6,32.1h-3.9a2.66,2.66,0,0,0,.3,1.2,2.7,2.7,0,0,0,.7.8,2,2,0,0,0,1.7.2c.2-.1.4-.1.6-.3s.4-.2.5-.4.4-.3.6-.5.2-.1.4-.1a.68.68,0,0,1,.7.7,1.42,1.42,0,0,1-.2.6,3.74,3.74,0,0,1-.6.7,2.81,2.81,0,0,1-1.1.5,6.05,6.05,0,0,1-1.5.2,4.08,4.08,0,0,1-3-1.1,4,4,0,0,1-1.1-2.9,4.15,4.15,0,0,1,.3-1.6,3.53,3.53,0,0,1,.8-1.3A3.17,3.17,0,0,1,105,28a3.81,3.81,0,0,1,1.6-.3,3.94,3.94,0,0,1,2,.5,2.74,2.74,0,0,1,1.3,1.3,2.93,2.93,0,0,1,.4,1.6,1.05,1.05,0,0,1-.4,1C109.6,32.3,109.1,32.1,108.6,32.1ZM104.7,31h3.6a1.75,1.75,0,0,0-.6-1.5,1.73,1.73,0,0,0-1.3-.5,1.66,1.66,0,0,0-1.2.5A3.33,3.33,0,0,0,104.7,31Z" transform="translate(-6.6 -9.9)"/><path class="cls-3" d="M118.4,33.1a2.3,2.3,0,0,1-.4,1.4,2.73,2.73,0,0,1-1.2.9,5.41,5.41,0,0,1-1.9.3,4.84,4.84,0,0,1-1.8-.3,2.42,2.42,0,0,1-1.1-.8,1.78,1.78,0,0,1-.4-1,1.42,1.42,0,0,1,.2-.6.73.73,0,0,1,.6-.2.76.76,0,0,1,.5.2,1.38,1.38,0,0,1,.3.4,5.72,5.72,0,0,0,.7.8,2.13,2.13,0,0,0,1.2.3,1.69,1.69,0,0,0,1-.3.72.72,0,0,0,.4-.6.91.91,0,0,0-.4-.8,5.89,5.89,0,0,0-1.3-.5c-.7-.2-1.2-.3-1.7-.5a2.55,2.55,0,0,1-1-.7,1.71,1.71,0,0,1,0-2.2,2.42,2.42,0,0,1,1.1-.8,4.31,4.31,0,0,1,1.7-.3,5.9,5.9,0,0,1,1.4.2,2.32,2.32,0,0,1,1,.4,1.7,1.7,0,0,1,.6.6,1,1,0,0,1,0,1.2,1.45,1.45,0,0,1-.7.2.76.76,0,0,1-.5-.2l-.5-.5-.5-.5a1.08,1.08,0,0,0-.8-.2,2,2,0,0,0-.9.2c-.2.2-.4.3-.4.6a.55.55,0,0,0,.3.5,4.88,4.88,0,0,0,.7.3,10.38,10.38,0,0,0,1.2.3,5.27,5.27,0,0,1,1.5.5,2.18,2.18,0,0,1,.9.7A3,3,0,0,1,118.4,33.1Z" transform="translate(-6.6 -9.9)"/><path class="cls-3" d="M61.8,39v3h4.7V39a1.49,1.49,0,0,1,.3-1,1.22,1.22,0,0,1,1.6,0,1.33,1.33,0,0,1,.3,1v8.3a1.49,1.49,0,0,1-.3,1,1.22,1.22,0,0,1-1.6,0,1.33,1.33,0,0,1-.3-1V43.8H61.8v3.5a1.49,1.49,0,0,1-.3,1,1.22,1.22,0,0,1-1.6,0,1.33,1.33,0,0,1-.3-1V39a1.49,1.49,0,0,1,.3-1,1.22,1.22,0,0,1,1.6,0A1.69,1.69,0,0,1,61.8,39Z" transform="translate(-6.6 -9.9)"/><path class="cls-3" d="M78.4,44.6a4.15,4.15,0,0,1-.3,1.6,5.67,5.67,0,0,1-.8,1.3,2.87,2.87,0,0,1-1.3.8,4.42,4.42,0,0,1-3.2,0,5.67,5.67,0,0,1-1.3-.8,3.53,3.53,0,0,1-.8-1.3,4.42,4.42,0,0,1,0-3.2,5.67,5.67,0,0,1,.8-1.3,4.33,4.33,0,0,1,2.9-1.1,3.81,3.81,0,0,1,1.6.3,9.13,9.13,0,0,1,1.3.8,2.87,2.87,0,0,1,.8,1.3A4.15,4.15,0,0,1,78.4,44.6Zm-2,0a3.56,3.56,0,0,0-.5-1.9,1.91,1.91,0,0,0-1.4-.7,1.69,1.69,0,0,0-1,.3,2.18,2.18,0,0,0-.7.9,3,3,0,0,0-.2,1.4,4.44,4.44,0,0,0,.2,1.3,2.18,2.18,0,0,0,.7.9,1.69,1.69,0,0,0,1,.3,1.51,1.51,0,0,0,1.4-.7A3.2,3.2,0,0,0,76.4,44.6Z" transform="translate(-6.6 -9.9)"/><path class="cls-3" d="M86.6,44.8v2.6a1.22,1.22,0,0,1-.3.9,1,1,0,0,1-.8.3.91.91,0,0,1-.7-.3,1.22,1.22,0,0,1-.3-.9V44.3a3.11,3.11,0,0,0-.1-1.1c-.1-.2-.1-.5-.3-.7a.91.91,0,0,0-.7-.3c-.7,0-1.1.2-1.3.7a4.7,4.7,0,0,0-.3,1.9v2.6a1.22,1.22,0,0,1-.3.9.91.91,0,0,1-.7.3.78.78,0,0,1-.7-.3,1.22,1.22,0,0,1-.3-.9V41.8a1,1,0,0,1,.3-.8,1,1,0,0,1,1.7.7v.2a3.13,3.13,0,0,1,1.1-.9,3,3,0,0,1,2.6,0,2,2,0,0,1,.9.9,3.13,3.13,0,0,1,1.1-.9,2.77,2.77,0,0,1,1.3-.3,3.19,3.19,0,0,1,1.4.3,2,2,0,0,1,.9.9,3.69,3.69,0,0,1,.3,1.7v3.8a1.22,1.22,0,0,1-.3.9,1,1,0,0,1-.8.3.78.78,0,0,1-.7-.3,1.22,1.22,0,0,1-.3-.9V44.1a2.79,2.79,0,0,0-.1-1,.6.6,0,0,0-.3-.6.91.91,0,0,0-.7-.3,2.35,2.35,0,0,0-.8.2l-.6.6A6.82,6.82,0,0,0,86.6,44.8Z" transform="translate(-6.6 -9.9)"/><path class="cls-3" d="M98.8,45.1H94.9a2.66,2.66,0,0,0,.3,1.2,2.7,2.7,0,0,0,.7.8,2,2,0,0,0,1.7.2c.2-.1.4-.1.6-.3s.4-.2.5-.4.4-.3.6-.5.2-.1.4-.1a.68.68,0,0,1,.7.7,1.42,1.42,0,0,1-.2.6,3.74,3.74,0,0,1-.6.7,2.81,2.81,0,0,1-1.1.5,6.05,6.05,0,0,1-1.5.2,4.08,4.08,0,0,1-3-1.1,4,4,0,0,1-1.1-2.9,4.15,4.15,0,0,1,.3-1.6,3.53,3.53,0,0,1,.8-1.3,3.84,3.84,0,0,1,2.8-1.1,3.94,3.94,0,0,1,2,.5,2.74,2.74,0,0,1,1.3,1.3,3.17,3.17,0,0,1,.4,1.6,1.05,1.05,0,0,1-.4,1A5.63,5.63,0,0,0,98.8,45.1ZM94.9,44h3.6a1.75,1.75,0,0,0-.6-1.5,1.73,1.73,0,0,0-1.3-.5,1.66,1.66,0,0,0-1.2.5A3.71,3.71,0,0,0,94.9,44Z" transform="translate(-6.6 -9.9)"/><path class="cls-3" d="M104.5,39v3h4.7V39a1.49,1.49,0,0,1,.3-1,1.22,1.22,0,0,1,1.6,0,1.33,1.33,0,0,1,.3,1v8.3a1.49,1.49,0,0,1-.3,1,1.22,1.22,0,0,1-1.6,0,1.33,1.33,0,0,1-.3-1V43.8h-4.7v3.5a1.49,1.49,0,0,1-.3,1,1.22,1.22,0,0,1-1.6,0,1.33,1.33,0,0,1-.3-1V39a1.49,1.49,0,0,1,.3-1,1.22,1.22,0,0,1,1.6,0A1.69,1.69,0,0,1,104.5,39Z" transform="translate(-6.6 -9.9)"/><path class="cls-3" d="M121,44.6a4.15,4.15,0,0,1-.3,1.6,5.67,5.67,0,0,1-.8,1.3,2.87,2.87,0,0,1-1.3.8,4.42,4.42,0,0,1-3.2,0,5.67,5.67,0,0,1-1.3-.8,3.53,3.53,0,0,1-.8-1.3,4.42,4.42,0,0,1,0-3.2,5.67,5.67,0,0,1,.8-1.3,4.33,4.33,0,0,1,2.9-1.1,3.81,3.81,0,0,1,1.6.3,9.13,9.13,0,0,1,1.3.8,2.87,2.87,0,0,1,.8,1.3A4.15,4.15,0,0,1,121,44.6Zm-2,0a3.56,3.56,0,0,0-.5-1.9,1.91,1.91,0,0,0-1.4-.7,1.69,1.69,0,0,0-1,.3,2.18,2.18,0,0,0-.7.9,3,3,0,0,0-.2,1.4,4.44,4.44,0,0,0,.2,1.3,2.18,2.18,0,0,0,.7.9,1.69,1.69,0,0,0,1,.3,1.51,1.51,0,0,0,1.4-.7A3,3,0,0,0,119,44.6Z" transform="translate(-6.6 -9.9)"/><path class="cls-3" d="M127.8,47.5v-.3a2.7,2.7,0,0,1-.8.7,1.8,1.8,0,0,1-.9.4c-.3,0-.7.1-1.1.1a2.77,2.77,0,0,1-1.3-.3,2.36,2.36,0,0,1-.9-.8,4,4,0,0,1-.4-1.8V41.6a1.22,1.22,0,0,1,.3-.9,1,1,0,0,1,1.4,0,1.22,1.22,0,0,1,.3.9V45a3.42,3.42,0,0,0,.1,1.1c.1.3.2.6.4.7a1.14,1.14,0,0,0,.8.3,1.93,1.93,0,0,0,1-.3,2.7,2.7,0,0,0,.7-.8,6.25,6.25,0,0,0,.2-1.8V41.8a1.22,1.22,0,0,1,.3-.9,1,1,0,0,1,1.4,0,1.22,1.22,0,0,1,.3.9v5.7c0,.4-.1.7-.3.8a1,1,0,0,1-1.4,0C127.9,48.1,127.8,47.9,127.8,47.5Z" transform="translate(-6.6 -9.9)"/><path class="cls-3" d="M138.1,46.1a2.3,2.3,0,0,1-.4,1.4,2.73,2.73,0,0,1-1.2.9,5.41,5.41,0,0,1-1.9.3,4.84,4.84,0,0,1-1.8-.3,2.42,2.42,0,0,1-1.1-.8,1.78,1.78,0,0,1-.4-1,1.42,1.42,0,0,1,.2-.6c.1-.2.4-.2.6-.2s.4,0,.5.2.2.2.3.4a5.72,5.72,0,0,0,.7.8,2.13,2.13,0,0,0,1.2.3,1.69,1.69,0,0,0,1-.3.72.72,0,0,0,.4-.6.91.91,0,0,0-.4-.8,5.89,5.89,0,0,0-1.3-.5c-.7-.2-1.2-.3-1.7-.5a2.55,2.55,0,0,1-1-.7,1.71,1.71,0,0,1,0-2.2,3.13,3.13,0,0,1,1.1-.8,4.31,4.31,0,0,1,1.7-.3,5.9,5.9,0,0,1,1.4.2,2.32,2.32,0,0,1,1,.4,1.7,1.7,0,0,1,.6.6,1,1,0,0,1,0,1.2,1.45,1.45,0,0,1-.7.2.76.76,0,0,1-.5-.2l-.5-.5-.5-.5a1.88,1.88,0,0,0-.8-.2,2,2,0,0,0-.9.2c-.2.2-.4.3-.4.6a.55.55,0,0,0,.3.5,4.88,4.88,0,0,0,.7.3,10.38,10.38,0,0,0,1.2.3,5.27,5.27,0,0,1,1.5.5,2.18,2.18,0,0,1,.9.7A3,3,0,0,1,138.1,46.1Z" transform="translate(-6.6 -9.9)"/><path class="cls-3" d="M145.4,45.1h-3.9a2.66,2.66,0,0,0,.3,1.2,2.7,2.7,0,0,0,.7.8,2,2,0,0,0,1.7.2c.2-.1.4-.1.6-.3s.4-.2.5-.4.4-.3.6-.5.2-.1.4-.1a.68.68,0,0,1,.7.7,1.42,1.42,0,0,1-.2.6,3.74,3.74,0,0,1-.6.7,2.81,2.81,0,0,1-1.1.5,6.05,6.05,0,0,1-1.5.2,4.08,4.08,0,0,1-3-1.1,4,4,0,0,1-1.1-2.9,4.15,4.15,0,0,1,.3-1.6,3.53,3.53,0,0,1,.8-1.3,3.84,3.84,0,0,1,2.8-1.1,3.94,3.94,0,0,1,2,.5,2.74,2.74,0,0,1,1.3,1.3,3.17,3.17,0,0,1,.4,1.6,1.05,1.05,0,0,1-.4,1A5.63,5.63,0,0,0,145.4,45.1ZM141.5,44h3.6a1.75,1.75,0,0,0-.6-1.5,1.73,1.73,0,0,0-1.3-.5,1.66,1.66,0,0,0-1.2.5A2.07,2.07,0,0,0,141.5,44Z" transform="translate(-6.6 -9.9)"/></svg>